<mxfile host="app.diagrams.net" agent="Mozilla/5.0 (Windows NT 10.0; Win64; x64) AppleWebKit/537.36 (KHTML, like Gecko) Chrome/130.0.0.0 Safari/537.36" version="24.8.3">
  <diagram id="C5RBs43oDa-KdzZeNtuy" name="Page-1">
    <mxGraphModel dx="1290" dy="530" grid="1" gridSize="10" guides="1" tooltips="1" connect="1" arrows="1" fold="1" page="1" pageScale="1" pageWidth="827" pageHeight="1169" math="0" shadow="0">
      <root>
        <mxCell id="WIyWlLk6GJQsqaUBKTNV-0" />
        <mxCell id="WIyWlLk6GJQsqaUBKTNV-1" parent="WIyWlLk6GJQsqaUBKTNV-0" />
        <mxCell id="aSI1iI5TADn9xwzwSDb--5" value="" style="edgeStyle=orthogonalEdgeStyle;rounded=0;orthogonalLoop=1;jettySize=auto;html=1;" edge="1" parent="WIyWlLk6GJQsqaUBKTNV-1" source="aSI1iI5TADn9xwzwSDb--0" target="aSI1iI5TADn9xwzwSDb--1">
          <mxGeometry relative="1" as="geometry" />
        </mxCell>
        <mxCell id="aSI1iI5TADn9xwzwSDb--0" value="Inicio" style="ellipse;whiteSpace=wrap;html=1;aspect=fixed;fillColor=#FFFFFF;" vertex="1" parent="WIyWlLk6GJQsqaUBKTNV-1">
          <mxGeometry x="260" y="70" width="80" height="80" as="geometry" />
        </mxCell>
        <mxCell id="aSI1iI5TADn9xwzwSDb--6" value="" style="edgeStyle=orthogonalEdgeStyle;rounded=0;orthogonalLoop=1;jettySize=auto;html=1;" edge="1" parent="WIyWlLk6GJQsqaUBKTNV-1" source="aSI1iI5TADn9xwzwSDb--1" target="aSI1iI5TADn9xwzwSDb--2">
          <mxGeometry relative="1" as="geometry" />
        </mxCell>
        <mxCell id="aSI1iI5TADn9xwzwSDb--1" value="Mostrar mensaje: &quot;Por favor, ingrese el radio del circulo: &quot;" style="shape=parallelogram;perimeter=parallelogramPerimeter;whiteSpace=wrap;html=1;fixedSize=1;fillColor=#6BF5FF;" vertex="1" parent="WIyWlLk6GJQsqaUBKTNV-1">
          <mxGeometry x="225" y="190" width="150" height="80" as="geometry" />
        </mxCell>
        <mxCell id="aSI1iI5TADn9xwzwSDb--7" value="" style="edgeStyle=orthogonalEdgeStyle;rounded=0;orthogonalLoop=1;jettySize=auto;html=1;" edge="1" parent="WIyWlLk6GJQsqaUBKTNV-1" source="aSI1iI5TADn9xwzwSDb--2" target="aSI1iI5TADn9xwzwSDb--3">
          <mxGeometry relative="1" as="geometry" />
        </mxCell>
        <mxCell id="aSI1iI5TADn9xwzwSDb--2" value="Definir y asignar a la variable área el resultado de pi * radio^2" style="rounded=1;whiteSpace=wrap;html=1;fillColor=#FFCC99;" vertex="1" parent="WIyWlLk6GJQsqaUBKTNV-1">
          <mxGeometry x="240" y="290" width="120" height="60" as="geometry" />
        </mxCell>
        <mxCell id="aSI1iI5TADn9xwzwSDb--8" value="" style="edgeStyle=orthogonalEdgeStyle;rounded=0;orthogonalLoop=1;jettySize=auto;html=1;" edge="1" parent="WIyWlLk6GJQsqaUBKTNV-1" source="aSI1iI5TADn9xwzwSDb--3" target="aSI1iI5TADn9xwzwSDb--4">
          <mxGeometry relative="1" as="geometry" />
        </mxCell>
        <mxCell id="aSI1iI5TADn9xwzwSDb--3" value="&lt;div&gt;&amp;nbsp; &amp;nbsp; Mostrar mensaje: &quot; &quot;El área del circulo con radio&quot;, radio, &quot;es:&quot;, area&lt;/div&gt;&lt;div&gt;&lt;br&gt;&lt;/div&gt;" style="shape=parallelogram;perimeter=parallelogramPerimeter;whiteSpace=wrap;html=1;fixedSize=1;fillColor=#6BF5FF;" vertex="1" parent="WIyWlLk6GJQsqaUBKTNV-1">
          <mxGeometry x="230" y="390" width="140" height="80" as="geometry" />
        </mxCell>
        <mxCell id="aSI1iI5TADn9xwzwSDb--4" value="Fin" style="ellipse;whiteSpace=wrap;html=1;aspect=fixed;fillColor=#FFFFFF;" vertex="1" parent="WIyWlLk6GJQsqaUBKTNV-1">
          <mxGeometry x="260" y="490" width="80" height="80" as="geometry" />
        </mxCell>
      </root>
    </mxGraphModel>
  </diagram>
</mxfile>
